<svg width="13" height="13" viewBox="0 0 13 13" fill="none" xmlns="http://www.w3.org/2000/svg">
<path id="add" d="M1.78572 7.78571H5.21429V11.2143C5.21429 11.9244 5.78992 12.5 6.5 12.5C7.21008 12.5 7.78571 11.9244 7.78571 11.2143V7.78571H11.2143C11.9244 7.78571 12.5 7.21008 12.5 6.5C12.5 5.78992 11.9244 5.21429 11.2143 5.21429H7.78571V1.78571C7.78571 1.07563 7.21008 0.5 6.5 0.5C5.78992 0.5 5.21429 1.07564 5.21429 1.78572V5.21429H1.78571C1.07563 5.21429 0.5 5.78992 0.5 6.5C0.5 7.21008 1.07564 7.78571 1.78572 7.78571Z" fill="white" stroke="white"/>
</svg>
