<svg width="24" height="24" viewBox="0 0 24 24" fill="none" xmlns="http://www.w3.org/2000/svg">
<g id="write-icon">
<path id="Vector" d="M1 16.4138V13.931H11.7027V16.4138H1ZM1 11.4483V8.96552H16.4595V11.4483H1ZM1 6.48276V4H16.4595V6.48276H1ZM12.2973 22V18.1828L18.8676 11.3552C19.0459 11.169 19.2441 11.0345 19.4622 10.9517C19.6802 10.869 19.8982 10.8276 20.1162 10.8276C20.3541 10.8276 20.582 10.8741 20.8 10.9672C21.018 11.0603 21.2162 11.2 21.3946 11.3862L22.4946 12.5345C22.6532 12.7207 22.777 12.9276 22.8662 13.1552C22.9554 13.3828 23 13.6103 23 13.8379C23 14.0655 22.9604 14.2983 22.8811 14.5362C22.8018 14.7741 22.673 14.9862 22.4946 15.1724L15.9541 22H12.2973ZM14.0811 20.1379H15.2108L18.8081 16.3517L18.273 15.7621L17.7081 15.2034L14.0811 18.9586V20.1379ZM18.273 15.7621L17.7081 15.2034L18.8081 16.3517L18.273 15.7621Z" fill="#FFC008"/>
</g>
</svg>
